
<svg xmlns="http://www.w3.org/2000/svg" viewBox="0 0 24 24" width="20" height="20" fill="currentColor">
  <path d="M12 0C5.372 0 0 5.373 0 12c0 5.302 3.438 9.8 8.205 11.387.6.113.82-.258.82-.577v-2.17c-3.338.726-4.033-1.416-4.033-1.416-.546-1.387-1.333-1.757-1.333-1.757-1.089-.745.084-.729.084-.729 1.205.084 1.84 1.238 1.84 1.238 1.07 1.835 2.809 1.305 3.495.997.107-.775.418-1.305.762-1.604-2.665-.303-5.467-1.332-5.467-5.931 0-1.31.469-2.381 1.236-3.221-.124-.303-.536-1.523.117-3.176 0 0 1.008-.322 3.301 1.23.957-.266 1.983-.399 3.003-.404 1.02.005 2.047.138 3.006.404 2.291-1.552 3.297-1.23 3.297-1.23.655 1.653.243 2.873.119 3.176.77.84 1.235 1.911 1.235 3.221 0 4.61-2.807 5.625-5.479 5.921.43.37.823 1.103.823 2.222v3.293c0 .319.218.694.825.576C20.565 21.796 24 17.298 24 12c0-6.627-5.373-12-12-12z"/>
</svg>
